<svg width="34" height="35" viewBox="0 0 34 35" fill="none" xmlns="http://www.w3.org/2000/svg">
<rect width="33.9051" height="35" fill="black" fill-opacity="0"/>
<rect width="33.9051" height="35" fill="black" fill-opacity="0"/>
<rect width="33.9051" height="35" fill="black" fill-opacity="0"/>
<path d="M32.7839 20.5006H32.2602V15.7827C32.2602 15.0358 31.8884 14.3745 31.3207 13.9727V13.3303C31.3207 12.3985 30.5627 11.6405 29.6309 11.6405H29.2398L30.7361 9.44479C31.2377 8.70883 31.0469 7.70197 30.311 7.20035L20.1575 0.281008C19.801 0.0379904 19.3713 -0.0516971 18.9472 0.0287619C18.5233 0.109084 18.156 0.349641 17.913 0.706204L9.14929 13.5662H6.71057L7.29894 7.61003C7.30557 7.5429 7.34918 7.48472 7.41002 7.46182C8.16806 7.17601 8.825 6.64226 9.25976 5.95894C9.29401 5.90514 9.35861 5.87438 9.42546 5.88115L13.2505 6.25904C13.5248 6.28563 13.7687 6.08588 13.7958 5.81176C13.8229 5.53764 13.6227 5.29353 13.3485 5.26646L9.52349 4.88857C9.0795 4.84509 8.65608 5.04969 8.41819 5.42348C8.09854 5.92592 7.61551 6.31831 7.05818 6.52844C6.63866 6.68663 6.35059 7.06342 6.30629 7.51193L5.70828 13.5661H5.07234L6.00284 4.14591C6.03634 3.80685 6.33897 3.55775 6.67844 3.59172L14.4081 4.3553C14.6822 4.38175 14.9263 4.18214 14.9534 3.90802C14.9805 3.6339 14.7803 3.38979 14.5061 3.36272L6.77647 2.59914C5.89026 2.51171 5.09777 3.16147 5.0102 4.04782L4.26016 11.6405H2.98286C2.05112 11.6405 1.29302 12.3985 1.29302 13.3303V13.7685C0.530743 14.1195 0 14.89 0 15.7827V32.7834C0 34.0056 0.994356 35 2.21669 35H30.0436C31.2658 35 32.2602 34.0056 32.2602 32.7834V28.0656H32.7839C33.4022 28.0656 33.9051 27.5627 33.9051 26.9445V21.6217C33.9052 21.0035 33.4022 20.5006 32.7839 20.5006ZM29.6309 12.638C30.0127 12.6379 30.3233 12.9486 30.3233 13.3304V13.5845C30.2315 13.5729 30.1384 13.5662 30.0436 13.5662H27.9275L28.56 12.638H29.6309ZM18.7372 1.26784C18.8302 1.13147 18.9707 1.03946 19.1328 1.00869C19.1716 1.00138 19.2105 0.997688 19.2491 0.997688C19.372 0.997688 19.492 1.03447 19.5958 1.10515L29.7493 8.02449C30.0308 8.21637 30.1038 8.60151 29.912 8.88301L26.7205 13.566H25.9546L27.5193 11.2701C27.7731 10.8977 27.794 10.4238 27.5737 10.0333C27.281 9.51445 27.1623 8.90352 27.2396 8.31297C27.297 7.87362 27.1037 7.44473 26.7351 7.19358L21.4716 3.60662C21.1029 3.3554 20.633 3.33237 20.2451 3.54654C19.7239 3.83433 19.1119 3.94733 18.5219 3.86475C18.0844 3.80336 17.6407 4.00092 17.3907 4.36767L11.1222 13.5661H10.3563L18.7372 1.26784ZM18.9569 9.73696C16.785 9.73696 15.0022 11.4304 14.857 13.5661H12.3291L18.2148 4.92938C18.2148 4.92938 18.2148 4.92938 18.2148 4.92938C18.2483 4.88023 18.3037 4.85097 18.3607 4.85097C18.3682 4.85097 18.3758 4.85152 18.3834 4.85254C19.1858 4.96479 20.0181 4.81125 20.7271 4.41976C20.7829 4.38886 20.8545 4.39331 20.9098 4.4309L26.1734 8.01793C26.2285 8.05552 26.2588 8.1206 26.2506 8.18377C26.1455 8.98692 26.307 9.81776 26.705 10.5234C26.7369 10.58 26.733 10.6526 26.6952 10.7083L24.7477 13.566H23.057C22.9116 11.4304 21.1289 9.73696 18.9569 9.73696ZM22.0568 13.5662H15.857C15.9999 11.981 17.3352 10.7345 18.9569 10.7345C20.5786 10.7344 21.914 11.981 22.0568 13.5662ZM2.29045 13.3303C2.29045 12.9485 2.60101 12.6379 2.98286 12.6379H4.16165L4.06998 13.5661H2.29045V13.3303ZM0.997432 15.7827C0.997432 15.1105 1.54438 14.5635 2.21669 14.5635H30.0436C30.7159 14.5635 31.2627 15.1105 31.2627 15.7827V17.1666H0.997432V15.7827ZM31.2627 32.7834C31.2627 33.4556 30.7159 34.0026 30.0436 34.0026H2.21669C1.54438 34.0026 0.997432 33.4556 0.997432 32.7834V31.3995H3.68683C3.96232 31.3995 4.18551 31.1762 4.18551 30.9008C4.18551 30.6254 3.96225 30.4021 3.68683 30.4021H0.997432V18.164H31.2627V20.5006H26.5209H26.5209C25.0268 20.5006 23.7326 21.3715 23.1184 22.6321C23.1164 22.6363 23.114 22.6404 23.1119 22.6447C23.1067 22.6554 23.1022 22.6665 23.0971 22.6773C23.024 22.8327 22.9604 22.9936 22.9087 23.1595C22.9085 23.16 22.9084 23.1604 22.9083 23.1609C22.7979 23.5156 22.7383 23.8925 22.7383 24.2831C22.7383 26.3688 24.4351 28.0656 26.5208 28.0656H26.5209H31.2627V30.4021H6.88017C6.60468 30.4021 6.38149 30.6254 6.38149 30.9008C6.38149 31.1762 6.60475 31.3995 6.88017 31.3995H31.2627V32.7834ZM32.9077 26.9445C32.9077 27.0127 32.8522 27.0682 32.7839 27.0682H26.521C25.4652 27.0682 24.5447 26.4776 24.0725 25.6095C24.051 25.5701 24.0305 25.53 24.0109 25.4895C23.9717 25.4084 23.9364 25.325 23.9051 25.2397C23.7956 24.9413 23.7359 24.619 23.7359 24.2831C23.7359 23.9472 23.7957 23.6249 23.9051 23.3265C23.9365 23.2412 23.9718 23.1579 24.0109 23.0767C24.0305 23.0361 24.051 22.9961 24.0725 22.9566C24.5447 22.0885 25.4652 21.498 26.521 21.498H32.7839C32.8522 21.498 32.9077 21.5535 32.9077 21.6217V26.9445Z" fill="#FFC501"/>
<rect width="4.04688" height="4.04681" fill="black" fill-opacity="0" transform="translate(24.6144 22.2603)"/>
<rect width="4.04688" height="4.04681" fill="black" fill-opacity="0" transform="translate(24.6144 22.2603)"/>
<path d="M26.6378 22.2603C25.5221 22.2603 24.6144 23.168 24.6144 24.2837C24.6144 25.3994 25.5221 26.3071 26.6378 26.3071C27.7536 26.3071 28.6613 25.3994 28.6613 24.2837C28.6613 23.168 27.7536 22.2603 26.6378 22.2603ZM26.6378 25.3096C26.0721 25.3096 25.6118 24.8494 25.6118 24.2837C25.6118 23.718 26.0721 23.2577 26.6378 23.2577C27.2036 23.2577 27.6638 23.7179 27.6638 24.2837C27.6638 24.8494 27.2036 25.3096 26.6378 25.3096Z" fill="#FFC501"/>
</svg>
