<svg width="26" height="39" viewBox="0 0 26 39" fill="none" xmlns="http://www.w3.org/2000/svg">
<rect width="26" height="39" fill="black" fill-opacity="0"/>
<rect width="26" height="39" fill="black" fill-opacity="0"/>
<rect width="26" height="39" fill="black" fill-opacity="0"/>
<path d="M25.4348 31.5994C25.1228 31.5994 24.8698 31.8552 24.8698 32.1707V37.5418C24.8698 37.7157 24.7298 37.8573 24.5578 37.8573H21.5204V26.6069C21.5204 26.2914 21.2674 26.0356 20.9553 26.0356C20.6433 26.0356 20.3903 26.2914 20.3903 26.6069V37.8573H14.2739L16.0476 35.8845C16.2414 35.6689 16.3328 35.3619 16.292 35.0628C16.2913 35.057 16.2904 35.0513 16.2894 35.0455L14.6001 24.9552L15.0552 24.2625C15.3068 24.4432 15.5007 24.6171 15.8642 24.6171C16.2339 24.6171 16.5797 24.4079 16.7498 24.0635V24.0634L18.5315 20.4528L22.5905 22.0422C22.7373 22.1058 24.8696 23.0767 24.8696 25.6404V29.5046C24.8695 29.82 25.1225 30.0759 25.4347 30.0759C25.7467 30.0759 25.9997 29.8201 25.9997 29.5046V25.6404C25.9997 22.2626 23.1392 21.0348 23.0174 20.9841C23.0139 20.9826 23.0103 20.9812 23.0067 20.9798L16.2512 18.3346V16.7328C17.3242 15.8891 18.0681 14.6384 18.2549 13.2116C18.7899 13.1735 19.2863 12.9715 19.6917 12.619C20.2211 12.1587 20.5248 11.4888 20.5248 10.7813C20.5248 10.1942 20.3153 9.63353 19.942 9.19669V7.0804C19.9419 3.17629 16.8004 0 12.939 0C9.07761 0 5.93615 3.17629 5.93615 7.0804V9.25214C5.55878 9.68457 5.35356 10.2169 5.35356 10.7812C5.35356 11.4889 5.65717 12.1588 6.18672 12.6192C6.59182 12.9715 7.08792 13.1732 7.62275 13.2114C7.81102 14.665 8.57669 15.9623 9.74104 16.8173V18.3346L2.9929 20.9797C2.98936 20.9811 2.98582 20.9825 2.98228 20.984C2.86045 21.0346 0 22.2624 0 25.6402V37.5417C0 38.3457 0.646932 38.9998 1.44213 38.9998H6.82559C7.13765 38.9998 7.39063 38.744 7.39063 38.4285C7.39063 38.113 7.13765 37.8572 6.82559 37.8572H5.60986V26.6069C5.60986 26.2914 5.35687 26.0356 5.04482 26.0356C4.73277 26.0356 4.47978 26.2914 4.47978 26.6069V37.8573H1.4422C1.27021 37.8573 1.13023 37.7158 1.13023 37.5419V25.6403C1.13023 23.068 3.27685 22.0994 3.40869 22.0424L7.46446 20.4527L9.24637 24.0634C9.41686 24.4087 9.76304 24.6171 10.1321 24.6171C10.4938 24.6171 10.6857 24.4458 10.941 24.2625L11.3962 24.9552L9.70699 35.0455C9.70601 35.0513 9.70518 35.057 9.70435 35.0628C9.66352 35.3617 9.75491 35.6689 9.94875 35.8846L11.7224 37.8574H9.46267C9.15062 37.8574 8.89763 38.1132 8.89763 38.4287C8.89763 38.7442 9.15062 39 9.46267 39H24.5579C25.3531 39 26 38.3458 26 37.5419V32.1707C25.9998 31.8552 25.7469 31.5994 25.4348 31.5994ZM17.4731 20.0385L15.812 23.4045C15.7707 23.3749 14.8904 22.7425 13.8142 21.9699C14.2812 21.3871 13.7349 22.0688 15.8661 19.4092L17.4731 20.0385ZM14.1332 23.6006L13.7024 24.2562H12.2934L11.8626 23.6006L12.9979 22.7853L14.1332 23.6006ZM10.871 18.519V17.4498C11.5575 17.7296 12.2912 17.8593 13.0076 17.8593C13.7485 17.8593 14.4749 17.6997 15.121 17.414V18.5236L12.9979 21.1733L10.871 18.519ZM19.3947 10.7813C19.3946 11.1555 19.2343 11.5096 18.9548 11.7527C18.77 11.9134 18.5468 12.0162 18.3023 12.0564V9.5064C18.9517 9.61304 19.3947 10.1577 19.3947 10.7813ZM7.57604 12.0564C6.91924 11.9486 6.48363 11.3996 6.48363 10.7812C6.48363 10.1705 6.98441 9.67337 7.57604 9.53512V12.0564ZM7.6064 8.37099C7.42642 8.39186 7.22014 8.44114 7.06638 8.494V7.0804C7.06638 3.80631 9.70081 1.14265 12.9391 1.14265C16.1774 1.14265 18.8118 3.80631 18.8118 7.0804V8.45477C18.6476 8.40427 18.4772 8.37091 18.3024 8.35522C18.3024 7.80396 18.3071 7.9103 16.5235 5.97149C16.1954 5.61516 15.6529 5.54051 15.2399 5.81329C13.2713 7.11346 10.8699 7.76664 8.65421 7.60576C8.1682 7.56897 7.72551 7.89263 7.6064 8.37099ZM8.70619 12.5062V8.94197V8.75421C11.1453 8.89863 13.7025 8.16601 15.7684 6.82835C16.5864 7.71636 17.0294 8.18215 17.1722 8.35933C17.1722 8.80752 17.1722 11.9931 17.1722 12.5061C17.1722 14.8253 15.3019 16.7166 13.0077 16.7166C10.4316 16.7167 8.70619 14.6961 8.70619 12.5062ZM10.184 23.4045L8.52282 20.0385L10.127 19.4103L12.1793 21.9715C11.1356 22.7208 10.2787 23.3365 10.184 23.4045ZM10.8322 35.1687L12.4678 25.3987H13.5279L15.1634 35.1687L12.9979 37.5775L10.8322 35.1687Z" fill="#FFC501"/>
</svg>
