<svg width="29" height="36" viewBox="0 0 29 36" fill="none" xmlns="http://www.w3.org/2000/svg">
<rect width="29" height="35.9997" fill="black" fill-opacity="0"/>
<rect width="29" height="35.9997" fill="black" fill-opacity="0"/>
<rect width="29" height="35.9997" fill="black" fill-opacity="0"/>
<path d="M21.1612 32.2793H7.83989C3.51701 32.2793 0 28.7743 0 24.4649V14.9792C0 13.6863 1.05477 12.6348 2.35174 12.6348H26.6494C27.9452 12.6348 29 13.6863 29 14.9792V24.4649C29 28.7732 25.4841 32.2793 21.1612 32.2793ZM2.35174 13.7463C1.67089 13.7463 1.11616 14.2994 1.11616 14.9781V24.4638C1.11616 28.159 4.13201 31.1655 7.83989 31.1655H21.1612C24.868 31.1655 27.8838 28.159 27.8838 24.4638V14.9781C27.8838 14.2994 27.3302 13.7463 26.6494 13.7463H2.35174Z" fill="#FFC501"/>
<path d="M8.04525 13.7462C7.73719 13.7462 7.48717 13.4969 7.48717 13.1898V2.78173C7.48717 1.86153 6.736 1.11269 5.81294 1.11269H5.62877C4.70571 1.11269 3.95454 1.86153 3.95454 2.78173V13.1898C3.95454 13.4969 3.70452 13.7462 3.39646 13.7462C3.0884 13.7462 2.83838 13.4969 2.83838 13.1898V2.78173C2.83838 1.24733 4.08959 0 5.62877 0H5.81182C7.351 0 8.60222 1.24733 8.60222 2.78173V13.1898C8.60333 13.4969 8.35331 13.7462 8.04525 13.7462Z" fill="#FFC501"/>
<path d="M25.6024 13.7462C25.2943 13.7462 25.0443 13.4969 25.0443 13.1898V2.78173C25.0443 1.86153 24.2931 1.11269 23.3701 1.11269H23.187C22.264 1.11269 21.5128 1.86153 21.5128 2.78173V13.1898C21.5128 13.4969 21.2628 13.7462 20.9547 13.7462C20.6467 13.7462 20.3966 13.4969 20.3966 13.1898V2.78173C20.3966 1.24733 21.6478 0 23.187 0H23.3701C24.9093 0 26.1605 1.24733 26.1605 2.78173V13.1898C26.1605 13.4969 25.9105 13.7462 25.6024 13.7462Z" fill="#FFC501"/>
<path d="M18.6878 35.9995H10.3122C10.0041 35.9995 9.75412 35.7503 9.75412 35.4432V31.7224C9.75412 31.4153 10.0041 31.166 10.3122 31.166H18.6878C18.9959 31.166 19.2459 31.4153 19.2459 31.7224V35.4432C19.2459 35.7503 18.9959 35.9995 18.6878 35.9995ZM10.8703 34.8869H18.1298V32.2787H10.8703V34.8869Z" fill="#FFC501"/>
<rect width="5.08" height="9.11861" fill="black" fill-opacity="0" transform="translate(11.9589 17.4951)"/>
<rect width="5.08" height="9.11861" fill="black" fill-opacity="0" transform="translate(11.9589 17.4951)"/>
<path d="M12.8749 26.0571L14.231 22.3418L12.5188 21.8544L15.7289 18.0513L14.769 21.3738L16.4812 21.8611L12.8749 26.0571Z" fill="#FFC501"/>
<path d="M12.8749 26.6137C12.7777 26.6137 12.6806 26.5892 12.5936 26.5381C12.3603 26.4023 12.2576 26.1208 12.3503 25.8671L13.501 22.7126L12.3648 22.3888C12.1828 22.3377 12.0389 22.1975 11.983 22.0172C11.9284 21.8369 11.9674 21.64 12.0902 21.4953L15.3014 17.6922C15.471 17.4908 15.7601 17.4385 15.9912 17.5598C16.2233 17.6833 16.3383 17.9525 16.2646 18.2051L15.4588 20.9913L16.633 21.3262C16.816 21.3774 16.96 21.5187 17.0147 21.7001C17.0705 21.8826 17.0281 22.0795 16.9042 22.223L13.2979 26.419C13.1896 26.5459 13.0322 26.6137 12.8749 26.6137ZM14.5536 21.887C14.6261 21.9382 14.6864 22.0072 14.7277 22.0884C14.798 22.2264 14.808 22.3866 14.7545 22.5313L14.4486 23.3713L15.4922 22.1574L14.6172 21.9082C14.5949 21.9037 14.5736 21.8959 14.5536 21.887ZM13.4999 21.5554L14.3828 21.8069C14.4051 21.8125 14.4252 21.8203 14.4464 21.8292C14.3783 21.7813 14.3225 21.7179 14.2812 21.6444C14.2098 21.5154 14.1919 21.3629 14.2332 21.2205L14.4676 20.4105L13.4999 21.5554Z" fill="#FFC501"/>
</svg>
