<svg width="32" height="25" viewBox="0 0 32 25" fill="none" xmlns="http://www.w3.org/2000/svg">
<rect width="32" height="25" fill="black" fill-opacity="0"/>
<rect width="32" height="25" fill="black" fill-opacity="0"/>
<rect width="32" height="25" fill="black" fill-opacity="0"/>
<path d="M28.0935 0H3.9131C1.7546 0 0 1.80125 0 4.01713V20.9829C0 23.1988 1.7546 25 3.9131 25H28.0869C30.2454 25 32 23.1988 32 20.9829V4.02393C32.0066 1.80805 30.252 0 28.0935 0ZM30.2189 20.9829C30.2189 22.186 29.2654 23.1648 28.0935 23.1648H3.9131C2.74115 23.1648 1.78771 22.186 1.78771 20.9829V4.02393C1.78771 2.82083 2.74115 1.84203 3.9131 1.84203H28.0869C29.2588 1.84203 30.2123 2.82083 30.2123 4.02393V20.9829H30.2189Z" fill="black"/>
<path d="M20.1812 12.2899L28.0074 5.08491C28.3716 4.74505 28.4047 4.16729 28.0736 3.78665C27.7426 3.4128 27.1798 3.37882 26.809 3.71868L16.0165 13.6629L13.911 11.7325C13.9044 11.7257 13.8978 11.7189 13.8978 11.7122C13.8514 11.6646 13.8051 11.6238 13.7521 11.583L5.18435 3.71188C4.81357 3.37202 4.25077 3.40601 3.91972 3.78665C3.58866 4.16729 3.62176 4.74505 3.99255 5.08491L11.9114 12.3511L4.02565 19.9299C3.66811 20.2766 3.64825 20.8543 3.98593 21.2282C4.1647 21.4185 4.40306 21.5205 4.64142 21.5205C4.85992 21.5205 5.07842 21.4389 5.25057 21.2758L13.2555 13.5882L15.4273 15.5797C15.5994 15.7361 15.8113 15.8108 16.0232 15.8108C16.235 15.8108 16.4535 15.7293 16.6191 15.5729L18.8504 13.5202L26.809 21.2826C26.9812 21.4525 27.2063 21.5341 27.4248 21.5341C27.6631 21.5341 27.8949 21.4389 28.0736 21.2486C28.4113 20.8815 28.3981 20.297 28.0405 19.9503L20.1812 12.2899Z" fill="black"/>
</svg>
