<svg width="16" height="16" viewBox="0 0 16 16" fill="none" xmlns="http://www.w3.org/2000/svg">
<path d="M15.5556 7.79396C15.5556 12.0985 12.137 15.5879 7.91916 15.5879C6.58017 15.5879 5.32225 15.2359 4.22783 14.6181L0 16L1.3784 11.8183C0.683062 10.6439 0.282593 9.26649 0.282593 7.79396C0.282593 3.48942 3.70153 0 7.91916 0C12.1373 0 15.5556 3.48942 15.5556 7.79396ZM7.91916 1.24124C4.37872 1.24124 1.49886 4.1808 1.49886 7.79396C1.49886 9.22773 1.95326 10.5556 2.72188 11.6357L1.91973 14.0693L4.38701 13.2628C5.40072 13.9474 6.61509 14.3467 7.91933 14.3467C11.4593 14.3467 14.3396 11.4075 14.3396 7.79431C14.3396 4.18116 11.4594 1.24124 7.91916 1.24124ZM11.7754 9.58898C11.7282 9.50951 11.6036 9.46151 11.4166 9.36604C11.2292 9.27058 10.3087 8.80818 10.1376 8.74471C9.96593 8.68107 9.84079 8.64907 9.71617 8.84018C9.59156 9.03147 9.23274 9.46151 9.12333 9.58898C9.0141 9.7168 8.90504 9.7328 8.71768 9.63716C8.53067 9.54169 7.92763 9.33973 7.21259 8.68907C6.65622 8.18276 6.28047 7.55769 6.17123 7.36622C6.06217 7.17511 6.15983 7.07182 6.25333 6.97671C6.33768 6.89102 6.44069 6.7536 6.5342 6.64213C6.62805 6.53049 6.65916 6.45102 6.72121 6.32338C6.78395 6.19591 6.75267 6.08444 6.70565 5.98862C6.65899 5.89316 6.28427 4.95307 6.12837 4.57049C5.97247 4.18827 5.81674 4.25191 5.70733 4.25191C5.59827 4.25191 5.47331 4.23591 5.34852 4.23591C5.22373 4.23591 5.02081 4.28373 4.84918 4.47484C4.67773 4.66613 4.1943 5.12836 4.1943 6.06827C4.1943 7.00836 4.86474 7.91662 4.95859 8.04391C5.0521 8.1712 6.25316 10.163 8.15612 10.928C10.0593 11.6926 10.0593 11.4375 10.4025 11.4055C10.7454 11.3737 11.5097 10.9435 11.6663 10.4976C11.8219 10.051 11.8219 9.66862 11.7754 9.58898Z" fill="white"/>
</svg>
