<svg width="16" height="16" viewBox="0 0 16 16" fill="none" xmlns="http://www.w3.org/2000/svg">
<path d="M15.5556 0H0V16H15.5556V0Z" fill="white"/>
<path d="M10.6438 0.0384743L0.241606 4.20792C-0.0953228 4.34298 -0.0749111 4.84029 0.271916 4.94561L2.91523 5.74847L3.90171 8.96813C4.00476 9.30443 4.4191 9.40639 4.65895 9.15448L6.02561 7.71918L8.70712 9.74371C9.03527 9.99147 9.50262 9.8074 9.58594 9.39757L11.3619 0.664001C11.4489 0.236205 11.0397 -0.120216 10.6438 0.0384743ZM9.33964 1.97667L4.50788 6.37147C4.45972 6.41529 4.42907 6.47592 4.4219 6.54164L4.23587 8.24258C4.2298 8.29805 4.15433 8.30539 4.13822 8.25209L3.37285 5.7154C3.33779 5.59926 3.3835 5.47343 3.48395 5.40936L9.18976 1.76946C9.32097 1.68569 9.45532 1.87149 9.33964 1.97667Z" transform="translate(1.60474 3.49343)" fill="black"/>
</svg>
