<svg width="18" height="16" viewBox="0 0 18 16" fill="none" xmlns="http://www.w3.org/2000/svg">
<path d="M17.2248 9.39761C16.94 8.99569 16.8081 8.5048 16.8086 8.00871C16.8086 8.00583 16.8086 8.00295 16.8086 8.00002C16.8086 3.58174 13.3011 0 8.97438 0C8.02786 0 7.12092 0.172024 6.28108 0.486404C5.82674 0.656463 5.32901 0.689149 4.86321 0.555159C4.45175 0.436804 4.01222 0.386883 3.55689 0.418884C1.6442 0.553285 0.104382 2.15398 0.00526735 4.10916C-0.0420518 5.04237 0.232014 5.90807 0.723919 6.60239C1.00868 7.00431 1.14066 7.4952 1.14008 7.99129C1.14008 7.99417 1.14008 7.99705 1.14008 7.99998C1.14008 12.4183 4.64756 16 8.97434 16C9.9209 16 10.8278 15.828 11.6676 15.5136C12.122 15.3435 12.6197 15.3109 13.0855 15.4448C13.497 15.5632 13.9365 15.6131 14.3918 15.5811C16.3045 15.4467 17.8443 13.8461 17.9435 11.8909C17.9908 10.9577 17.7167 10.092 17.2248 9.39761ZM9.26116 6.56577C10.8408 6.94936 13.2279 7.52902 13.2279 10.2141C13.2279 11.5368 12.59 12.5458 11.4317 13.0552C10.6051 13.4187 9.66957 13.4678 8.86345 13.4678C6.3862 13.4678 4.82157 11.5008 4.75617 11.417C4.35049 10.8974 4.43398 10.1403 4.94285 9.72603C5.45159 9.31158 6.19302 9.39706 6.5988 9.91652C6.60242 9.92095 7.53811 11.0183 8.86345 11.0612C10.4594 11.1129 10.824 10.628 10.8712 10.2141C10.9288 9.70861 10.4884 9.3375 8.7158 8.90705C7.21332 8.54215 4.94249 7.99074 4.94249 5.5179C4.94249 4.74784 5.24919 2.23526 9.19598 2.23526C11.6881 2.23526 13.1591 4.23889 13.2205 4.3242C13.606 4.85965 13.4934 5.61285 12.9691 6.00641C12.447 6.39827 11.7141 6.28613 11.3271 5.75717C11.2994 5.72073 10.4573 4.76411 9.19598 4.64182C8.24154 4.54925 7.29918 4.9007 7.29918 5.41989C7.29918 5.96997 7.5698 6.15502 9.26116 6.56577Z" fill="white"/>
</svg>
