<svg width="350" height="238" viewBox="0 0 350 238" fill="none" xmlns="http://www.w3.org/2000/svg">
<path d="M214.199 206.819H174.533V167.046C174.533 162.273 171.359 159.092 166.6 159.092H150.733L165.012 140.001C167.392 136.819 166.599 131.251 163.426 128.864C160.253 126.478 154.699 127.274 152.319 130.455L128.519 162.273C126.933 164.66 126.139 167.841 127.726 170.228C129.312 172.614 131.693 175.001 134.867 175.001H158.666V206.819H79.3329V143.182H111.066L96.7862 162.273C94.4061 165.455 95.1997 171.023 98.3727 173.41C101.546 175.796 107.099 175 109.479 171.819L133.279 140.001C134.866 137.614 135.659 134.433 134.073 132.047C132.486 129.66 130.106 127.274 126.933 127.274H71.3991C66.639 127.274 63.466 130.456 63.466 135.228V206.819C58.7059 206.819 55.5329 210.001 55.5329 214.774C55.5329 219.546 58.7066 222.728 63.466 222.728H214.199C218.959 222.728 222.132 225.91 222.132 230.682C222.132 235.455 218.959 238.637 214.199 238.637H23.7999C19.0398 238.637 15.8668 235.454 15.8668 230.682C15.8668 225.909 19.0405 222.728 23.7999 222.728H31.733C39.6661 222.728 39.6661 215.569 39.6661 210.001V95.4549C39.6661 51.7046 75.3663 15.9087 119 15.9087C162.633 15.9087 198.333 51.7046 198.333 95.4549V182.955C198.333 187.728 201.507 190.91 206.266 190.91C211.026 190.91 214.199 187.728 214.199 182.955V95.4549C214.199 42.9546 171.36 0 119 0C66.6397 0 23.7999 42.9546 23.7999 95.4549C23.7999 95.4549 23.7999 179.773 23.7999 206.819C10.3131 206.819 0 217.16 0 230.683C0 244.206 10.3131 254.547 23.7999 254.547H214.2C227.687 254.547 238 244.206 238 230.683C237.999 217.161 227.686 206.819 214.199 206.819Z" transform="translate(350) rotate(90)" fill="#F00000"/>
<path d="M7.93308 0C3.17296 0 0 3.18216 0 7.95436V71.5912C0 76.3641 3.17364 79.5455 7.93308 79.5455C12.6925 79.5455 15.8662 76.3634 15.8662 71.5912V7.95436C15.8662 3.18216 12.6932 0 7.93308 0Z" transform="translate(79.5454 63.4668) rotate(90)" fill="#F00000"/>
<path d="M7.93307 0C3.17295 0 0 3.18216 0 7.95436V71.5912C0 76.3641 3.17363 79.5455 7.93307 79.5455C12.6925 79.5455 15.8662 76.3634 15.8662 71.5912V7.95436C15.8669 3.18216 12.6932 0 7.93307 0Z" transform="translate(79.5454 158.667) rotate(90)" fill="#F00000"/>
</svg>
