<svg width="23" height="30" viewBox="0 0 23 30" fill="none" xmlns="http://www.w3.org/2000/svg">
<path d="M22.1304 4.48409L17.7736 0.141877C17.686 0.0540485 17.565 0 17.4308 0H2.42095C1.08604 0 0 1.08242 0 2.41288V26.5417C0 27.8721 1.08604 28.9545 2.42095 28.9545H19.8518C21.1867 28.9545 22.2727 27.8721 22.2727 26.5417V4.82576C22.2727 4.69208 22.2185 4.57144 22.1304 4.48409ZM17.915 1.64751L20.6197 4.34318H17.915V1.64751ZM21.3043 26.5417C21.3043 27.3398 20.6526 27.9894 19.8518 27.9894H2.42095C1.6201 27.9894 0.968379 27.3398 0.968379 26.5417V2.41288C0.968379 1.6147 1.6201 0.965152 2.42095 0.965152H16.9466V4.82576C16.9466 5.09262 17.1636 5.30833 17.4308 5.30833H21.3043V26.5417Z" transform="translate(0.302979 0.772705)" fill="black"/>
<path d="M1.93676 0C0.868636 0 0 0.865741 0 1.9303C0 2.99487 0.868636 3.86061 1.93676 3.86061C3.00488 3.86061 3.87352 2.99487 3.87352 1.9303C3.87352 0.865741 3.00488 0 1.93676 0ZM1.93676 2.89545C1.4027 2.89545 0.968379 2.46258 0.968379 1.9303C0.968379 1.39802 1.4027 0.965152 1.93676 0.965152C2.47082 0.965152 2.90514 1.39802 2.90514 1.9303C2.90514 2.46258 2.47082 2.89545 1.93676 2.89545Z" transform="translate(2.72388 7.52878)" fill="black"/>
<path d="M1.93676 0C0.868636 0 0 0.865741 0 1.9303C0 2.99487 0.868636 3.86061 1.93676 3.86061C3.00488 3.86061 3.87352 2.99487 3.87352 1.9303C3.87352 0.865741 3.00488 0 1.93676 0ZM1.93676 2.89545C1.4027 2.89545 0.968379 2.46258 0.968379 1.9303C0.968379 1.39802 1.4027 0.965152 1.93676 0.965152C2.47082 0.965152 2.90514 1.39802 2.90514 1.9303C2.90514 2.46258 2.47082 2.89545 1.93676 2.89545Z" transform="translate(2.72388 12.8371)" fill="black"/>
<path d="M1.93676 0C0.868636 0 0 0.865741 0 1.9303C0 2.99487 0.868636 3.86061 1.93676 3.86061C3.00488 3.86061 3.87352 2.99487 3.87352 1.9303C3.87352 0.865741 3.00488 0 1.93676 0ZM1.93676 2.89545C1.4027 2.89545 0.968379 2.46258 0.968379 1.9303C0.968379 1.39802 1.4027 0.965152 1.93676 0.965152C2.47082 0.965152 2.90514 1.39802 2.90514 1.9303C2.90514 2.46258 2.47082 2.89545 1.93676 2.89545Z" transform="translate(2.72388 18.1455)" fill="black"/>
<path d="M1.93676 0C0.868636 0 0 0.865741 0 1.9303C0 2.99487 0.868636 3.86061 1.93676 3.86061C3.00488 3.86061 3.87352 2.99487 3.87352 1.9303C3.87352 0.865741 3.00488 0 1.93676 0ZM1.93676 2.89545C1.4027 2.89545 0.968379 2.46258 0.968379 1.9303C0.968379 1.39802 1.4027 0.965152 1.93676 0.965152C2.47082 0.965152 2.90514 1.39802 2.90514 1.9303C2.90514 2.46258 2.47082 2.89545 1.93676 2.89545Z" transform="translate(2.72388 23.4538)" fill="black"/>
<path d="M12.5889 0H0V0.965152H12.5889V0Z" transform="translate(7.56592 9.94168)" fill="black"/>
<path d="M6.77866 0H0V0.965152H6.77866V0Z" transform="translate(8.05005 3.18558)" fill="black"/>
<path d="M9.68379 0H0V0.965152H9.68379V0Z" transform="translate(6.59741 5.11588)" fill="black"/>
<path d="M12.5889 0H0V0.965152H12.5889V0Z" transform="translate(7.56592 15.25)" fill="black"/>
<path d="M12.5889 0H0V0.965152H12.5889V0Z" transform="translate(7.56592 20.5583)" fill="black"/>
<path d="M12.5889 0H0V0.965152H12.5889V0Z" transform="translate(7.56592 25.8667)" fill="black"/>
<path d="M0.968379 0H0V0.965152H0.968379V0Z" transform="translate(11.4395 8.01135)" fill="black"/>
<path d="M0.968379 0H0V0.965152H0.968379V0Z" transform="translate(9.50244 8.01135)" fill="black"/>
<path d="M0.968379 0H0V0.965152H0.968379V0Z" transform="translate(7.56592 8.01135)" fill="black"/>
</svg>
