<svg width="27" height="27" viewBox="0 0 27 27" fill="none" xmlns="http://www.w3.org/2000/svg">
<rect width="26.2093" height="27" fill="black" fill-opacity="0"/>
<path d="M26.2093 0H0V27H26.2093V0Z" fill="black"/>
<path d="M20.6374 5.95946L3.11089 12.9954C2.5432 13.2233 2.5776 14.0625 3.16196 14.2403L7.61563 15.5951L9.27774 21.0282C9.45136 21.5958 10.1495 21.7678 10.5536 21.3427L12.8563 18.9206L17.3743 22.337C17.9272 22.7551 18.7146 22.4445 18.855 21.7529L21.8473 7.01503C21.9939 6.29313 21.3044 5.69167 20.6374 5.95946ZM18.44 9.23016L10.2991 16.6464C10.2179 16.7203 10.1663 16.8226 10.1542 16.9336L9.84076 19.8039C9.83053 19.8975 9.70337 19.9099 9.67623 19.8199L8.38667 15.5393C8.32761 15.3433 8.40461 15.131 8.57387 15.0228L18.1875 8.8805C18.4086 8.73914 18.6349 9.05266 18.44 9.23016Z" fill="white"/>
</svg>
