<svg width="27" height="27" viewBox="0 0 27 27" fill="none" xmlns="http://www.w3.org/2000/svg">
<rect width="26.2093" height="27" fill="black" fill-opacity="0"/>
<rect width="26.2093" height="27" fill="black" fill-opacity="0"/>
<path d="M26.2093 13.1523C26.2093 20.4162 20.4494 26.3046 13.3429 26.3046C11.0868 26.3046 8.96737 25.7106 7.1234 24.6681L0 27L2.32244 19.9434C1.15088 17.9616 0.476136 15.6372 0.476136 13.1523C0.476136 5.8884 6.23665 0 13.3429 0C20.45 0 26.2093 5.8884 26.2093 13.1523ZM13.3429 2.0946C7.37763 2.0946 2.52541 7.0551 2.52541 13.1523C2.52541 15.5718 3.29101 17.8125 4.58605 19.6353L3.23452 23.742L7.39161 22.3809C9.09958 23.5362 11.1457 24.21 13.3432 24.21C19.3075 24.21 24.1606 19.2501 24.1606 13.1529C24.1606 7.0557 19.3078 2.0946 13.3429 2.0946ZM19.8402 16.1814C19.7606 16.0473 19.5507 15.9663 19.2356 15.8052C18.9199 15.6441 17.3689 14.8638 17.0806 14.7567C16.7914 14.6493 16.5806 14.5953 16.3706 14.9178C16.1607 15.2406 15.5561 15.9663 15.3718 16.1814C15.1877 16.3971 15.004 16.4241 14.6883 16.2627C14.3732 16.1016 13.3571 15.7608 12.1524 14.6628C11.215 13.8084 10.5819 12.7536 10.3978 12.4305C10.2141 12.108 10.3786 11.9337 10.5361 11.7732C10.6783 11.6286 10.8518 11.3967 11.0094 11.2086C11.1675 11.0202 11.2199 10.8861 11.3245 10.6707C11.4302 10.4556 11.3775 10.2675 11.2982 10.1058C11.2196 9.9447 10.5883 8.3583 10.3256 7.7127C10.0629 7.0677 9.80053 7.1751 9.61619 7.1751C9.43244 7.1751 9.22189 7.1481 9.01163 7.1481C8.80138 7.1481 8.45949 7.2288 8.17031 7.5513C7.88143 7.8741 7.0669 8.6541 7.0669 10.2402C7.0669 11.8266 8.19652 13.3593 8.35465 13.5741C8.5122 13.7889 10.5358 17.1501 13.7421 18.441C16.9487 19.7313 16.9487 19.3008 17.527 19.2468C18.1048 19.1931 19.3926 18.4671 19.6564 17.7147C19.9185 16.9611 19.9185 16.3158 19.8402 16.1814Z" fill="black"/>
</svg>
