<svg width="31" height="27" viewBox="0 0 31 27" fill="none" xmlns="http://www.w3.org/2000/svg">
<rect width="30.2415" height="27" fill="black" fill-opacity="0"/>
<path d="M29.0218 15.8585C28.542 15.1802 28.3196 14.3519 28.3205 13.5147C28.3206 13.5098 28.3206 13.505 28.3206 13.5C28.3206 6.04419 22.4108 0 15.1208 0C13.526 0 11.9979 0.290291 10.5829 0.820807C9.81737 1.10778 8.97877 1.16294 8.19394 0.936831C7.50068 0.737106 6.76013 0.652866 5.99295 0.706866C2.77029 0.933668 0.175872 3.63485 0.00887487 6.9342C-0.0708525 8.50901 0.390917 9.96987 1.21972 11.1415C1.69952 11.8198 1.92188 12.6481 1.9209 13.4853C1.9209 13.4902 1.9209 13.495 1.9209 13.5C1.9209 20.9558 7.8306 27 15.1207 27C16.7156 27 18.2437 26.7097 19.6586 26.1792C20.4241 25.8922 21.2627 25.8371 22.0476 26.0632C22.7408 26.2629 23.4813 26.3471 24.2486 26.2931C27.4712 26.0663 30.0656 23.3652 30.2326 20.066C30.3124 18.4911 29.8506 17.0302 29.0218 15.8585ZM15.604 11.0797C18.2655 11.727 22.2875 12.7052 22.2875 17.2363C22.2875 19.4683 21.2127 21.171 19.261 22.0306C17.8683 22.6441 16.2921 22.7269 14.9339 22.7269C10.76 22.7269 8.12379 19.4075 8.01359 19.2662C7.33006 18.3894 7.47074 17.1117 8.32812 16.4127C9.18529 15.7133 10.4345 15.8575 11.1182 16.7341C11.1243 16.7416 12.7008 18.5934 14.9339 18.6658C17.6229 18.753 18.2372 17.9348 18.3167 17.2363C18.4137 16.3833 17.6718 15.757 14.6851 15.0306C12.1536 14.4149 8.32752 13.4844 8.32752 9.31145C8.32752 8.01197 8.84428 3.77201 15.4942 3.77201C19.6931 3.77201 22.1716 7.15313 22.2751 7.29708C22.9245 8.20066 22.7349 9.47168 21.8514 10.1358C20.9717 10.7971 19.7368 10.6079 19.0849 9.71522C19.0381 9.65374 17.6194 8.03943 15.4942 7.83308C13.886 7.67686 12.2983 8.26994 12.2983 9.14606C12.2983 10.0743 12.7542 10.3866 15.604 11.0797Z" fill="black"/>
</svg>
