<svg width="122" height="19" viewBox="0 0 122 19" fill="none" xmlns="http://www.w3.org/2000/svg">
<path d="M12.7852 16.3828C11.5195 17.0391 9.94531 17.3672 8.0625 17.3672C5.625 17.3672 3.67188 16.5977 2.20312 15.0586C0.734375 13.5195 0 11.5 0 9C0 6.3125 0.824219 4.14062 2.47266 2.48438C4.12891 0.828125 6.21875 0 8.74219 0C10.3672 0 11.7148 0.230469 12.7852 0.691406V3.45703C11.6523 2.78516 10.4023 2.44922 9.03516 2.44922C7.21484 2.44922 5.73828 3.03125 4.60547 4.19531C3.48047 5.35938 2.91797 6.91406 2.91797 8.85938C2.91797 10.7109 3.44531 12.1875 4.5 13.2891C5.55469 14.3828 6.94141 14.9297 8.66016 14.9297C10.2461 14.9297 11.6211 14.5547 12.7852 13.8047V16.3828Z" transform="translate(0.0078125 0.914062)" fill="white"/>
<path d="M18.832 17.0859H15.9609V0.28125H18.832V17.0859Z" transform="translate(0.0078125 0.914062)" fill="white"/>
<path d="M33.7617 2.64844H28.9336V17.0859H26.1445V2.64844H21.3281V0.28125H33.7617V2.64844Z" transform="translate(0.0078125 0.914062)" fill="white"/>
<path d="M48.3281 0.28125L42.8203 10.9805V17.0859H40.0312V11.0391L34.6641 0.28125H37.8398L41.1445 7.48828C41.1836 7.57422 41.3008 7.89844 41.4961 8.46094H41.5312C41.6016 8.21094 41.7305 7.88672 41.918 7.48828L45.375 0.28125H48.3281Z" transform="translate(0.0078125 0.914062)" fill="white"/>
<path d="M9.30469 17.0859H0V0.28125H2.78906V14.7305H9.30469V17.0859Z" transform="translate(57.0898 0.914062)" fill="#FFC501"/>
<path d="M14.6016 17.0859H11.7305V0.28125H14.6016V17.0859Z" transform="translate(57.0898 0.914062)" fill="#FFC501"/>
<path d="M31.8633 15.9375C30.1133 16.8906 28.1641 17.3672 26.0156 17.3672C23.5312 17.3672 21.5195 16.5938 19.9805 15.0469C18.4414 13.5 17.6719 11.4531 17.6719 8.90625C17.6719 6.30469 18.5117 4.17188 20.1914 2.50781C21.8789 0.835938 24.0195 0 26.6133 0C28.4805 0 30.0508 0.273438 31.3242 0.820312V3.69141C30.0352 2.83203 28.5 2.40234 26.7188 2.40234C24.9297 2.40234 23.4609 2.99219 22.3125 4.17188C21.1719 5.35156 20.6016 6.87891 20.6016 8.75391C20.6016 10.6836 21.0938 12.2031 22.0781 13.3125C23.0625 14.4141 24.3984 14.9648 26.0859 14.9648C27.2422 14.9648 28.2422 14.7422 29.0859 14.2969V10.3008H25.5469V7.95703H31.8633V15.9375Z" transform="translate(57.0898 0.914062)" fill="#FFC501"/>
<path d="M48.9844 17.0859H46.1836V9.79688H38.2734V17.0859H35.4844V0.28125H38.2734V7.34766H46.1836V0.28125H48.9844V17.0859Z" transform="translate(57.0898 0.914062)" fill="#FFC501"/>
<path d="M63.9141 2.64844H59.0859V17.0859H56.2969V2.64844H51.4805V0.28125H63.9141V2.64844Z" transform="translate(57.0898 0.914062)" fill="#FFC501"/>
</svg>
