<svg width="122" height="19" viewBox="0 0 122 19" fill="none" xmlns="http://www.w3.org/2000/svg">
<path d="M13.793 25.2969C12.5273 25.9531 10.9531 26.2812 9.07031 26.2812C6.63281 26.2812 4.67969 25.5117 3.21094 23.9727C1.74219 22.4336 1.00781 20.4141 1.00781 17.9141C1.00781 15.2266 1.83203 13.0547 3.48047 11.3984C5.13672 9.74219 7.22656 8.91406 9.75 8.91406C11.375 8.91406 12.7227 9.14453 13.793 9.60547V12.3711C12.6602 11.6992 11.4102 11.3633 10.043 11.3633C8.22266 11.3633 6.74609 11.9453 5.61328 13.1094C4.48828 14.2734 3.92578 15.8281 3.92578 17.7734C3.92578 19.625 4.45312 21.1016 5.50781 22.2031C6.5625 23.2969 7.94922 23.8438 9.66797 23.8438C11.2539 23.8438 12.6289 23.4688 13.793 22.7188V25.2969ZM19.8398 26H16.9688V9.19531H19.8398V26ZM34.7695 11.5625H29.9414V26H27.1523V11.5625H22.3359V9.19531H34.7695V11.5625ZM49.3359 9.19531L43.8281 19.8945V26H41.0391V19.9531L35.6719 9.19531H38.8477L42.1523 16.4023C42.1914 16.4883 42.3086 16.8125 42.5039 17.375H42.5391C42.6094 17.125 42.7383 16.8008 42.9258 16.4023L46.3828 9.19531H49.3359Z" transform="translate(-1 -8)" fill="black"/>
<path d="M67.3945 26H58.0898V9.19531H60.8789V23.6445H67.3945V26ZM72.6914 26H69.8203V9.19531H72.6914V26ZM89.9531 24.8516C88.2031 25.8047 86.2539 26.2812 84.1055 26.2812C81.6211 26.2812 79.6094 25.5078 78.0703 23.9609C76.5312 22.4141 75.7617 20.3672 75.7617 17.8203C75.7617 15.2188 76.6016 13.0859 78.2812 11.4219C79.9688 9.75 82.1094 8.91406 84.7031 8.91406C86.5703 8.91406 88.1406 9.1875 89.4141 9.73438V12.6055C88.125 11.7461 86.5898 11.3164 84.8086 11.3164C83.0195 11.3164 81.5508 11.9062 80.4023 13.0859C79.2617 14.2656 78.6914 15.793 78.6914 17.668C78.6914 19.5977 79.1836 21.1172 80.168 22.2266C81.1523 23.3281 82.4883 23.8789 84.1758 23.8789C85.332 23.8789 86.332 23.6562 87.1758 23.2109V19.2148H83.6367V16.8711H89.9531V24.8516ZM107.074 26H104.273V18.7109H96.3633V26H93.5742V9.19531H96.3633V16.2617H104.273V9.19531H107.074V26ZM122.004 11.5625H117.176V26H114.387V11.5625H109.57V9.19531H122.004V11.5625Z" transform="translate(-1 -8)" fill="#F00000"/>
</svg>
