<svg width="122" height="19" viewBox="0 0 122 19" fill="none" xmlns="http://www.w3.org/2000/svg">
<path d="M12.793 17.2969C11.5273 17.9531 9.95312 18.2812 8.07031 18.2812C5.63281 18.2812 3.67969 17.5117 2.21094 15.9727C0.742188 14.4336 0.0078125 12.4141 0.0078125 9.91406C0.0078125 7.22656 0.832031 5.05469 2.48047 3.39844C4.13672 1.74219 6.22656 0.914062 8.75 0.914062C10.375 0.914062 11.7227 1.14453 12.793 1.60547V4.37109C11.6602 3.69922 10.4102 3.36328 9.04297 3.36328C7.22266 3.36328 5.74609 3.94531 4.61328 5.10938C3.48828 6.27344 2.92578 7.82812 2.92578 9.77344C2.92578 11.625 3.45312 13.1016 4.50781 14.2031C5.5625 15.2969 6.94922 15.8438 8.66797 15.8438C10.2539 15.8438 11.6289 15.4688 12.793 14.7188V17.2969ZM18.8398 18H15.9688V1.19531H18.8398V18ZM33.7695 3.5625H28.9414V18H26.1523V3.5625H21.3359V1.19531H33.7695V3.5625ZM48.3359 1.19531L42.8281 11.8945V18H40.0391V11.9531L34.6719 1.19531H37.8477L41.1523 8.40234C41.1914 8.48828 41.3086 8.8125 41.5039 9.375H41.5391C41.6094 9.125 41.7383 8.80078 41.9258 8.40234L45.3828 1.19531H48.3359Z" fill="black"/>
<path d="M66.3945 18H57.0898V1.19531H59.8789V15.6445H66.3945V18ZM71.6914 18H68.8203V1.19531H71.6914V18ZM88.9531 16.8516C87.2031 17.8047 85.2539 18.2812 83.1055 18.2812C80.6211 18.2812 78.6094 17.5078 77.0703 15.9609C75.5312 14.4141 74.7617 12.3672 74.7617 9.82031C74.7617 7.21875 75.6016 5.08594 77.2812 3.42188C78.9688 1.75 81.1094 0.914062 83.7031 0.914062C85.5703 0.914062 87.1406 1.1875 88.4141 1.73438V4.60547C87.125 3.74609 85.5898 3.31641 83.8086 3.31641C82.0195 3.31641 80.5508 3.90625 79.4023 5.08594C78.2617 6.26562 77.6914 7.79297 77.6914 9.66797C77.6914 11.5977 78.1836 13.1172 79.168 14.2266C80.1523 15.3281 81.4883 15.8789 83.1758 15.8789C84.332 15.8789 85.332 15.6562 86.1758 15.2109V11.2148H82.6367V8.87109H88.9531V16.8516ZM106.074 18H103.273V10.7109H95.3633V18H92.5742V1.19531H95.3633V8.26172H103.273V1.19531H106.074V18ZM121.004 3.5625H116.176V18H113.387V3.5625H108.57V1.19531H121.004V3.5625Z" fill="#FFC501"/>
</svg>
