<svg width="35" height="30" viewBox="0 0 35 30" fill="none" xmlns="http://www.w3.org/2000/svg">
<rect width="35" height="30" fill="white"/>
<path d="M33.2743 0H27.574C27.2913 0 27.0622 0.216779 27.0622 0.484315C27.0622 0.75185 27.2913 0.96863 27.574 0.96863H33.2743C33.627 0.96863 33.914 1.24023 33.914 1.57415V19.658H8.35908V0.96863H25.2418C25.5245 0.96863 25.7535 0.75185 25.7535 0.484315C25.7535 0.216779 25.5245 0 25.2418 0H1.66335C0.746176 0 0 0.706131 0 1.57415V22.4164C0 23.5764 0.997221 24.5201 2.22304 24.5201H9.20597C9.48868 24.5201 9.71775 24.3033 9.71775 24.0358C9.71775 23.7682 9.48868 23.5515 9.20597 23.5515H2.22304C1.56168 23.5515 1.02356 23.0422 1.02356 22.4164V20.6267H33.914V22.4164C33.914 23.0422 33.3759 23.5515 32.7145 23.5515H11.5382C11.2555 23.5515 11.0264 23.7682 11.0264 24.0358C11.0264 24.3033 11.2555 24.5201 11.5382 24.5201H14.5666C14.5443 24.5823 14.5214 24.6439 14.4974 24.704C14.1178 25.654 13.5504 26.3071 12.8113 26.6448C12.3683 26.8467 12.0931 27.2564 12.0931 27.714V27.7734C12.0931 28.4247 12.6533 28.9545 13.3418 28.9545H17.2581C17.5408 28.9545 17.7699 28.7378 17.7699 28.4702C17.7699 28.2027 17.5408 27.9859 17.2581 27.9859H13.3418C13.2177 27.9859 13.1166 27.8905 13.1166 27.7734V27.714C13.1166 27.6318 13.1697 27.5566 13.2559 27.5173C14.2395 27.0678 14.9793 26.2366 15.4547 25.0467C15.5223 24.8778 15.5841 24.7012 15.6395 24.5202H19.2988C19.3544 24.7014 19.4161 24.878 19.4835 25.0466C19.9592 26.237 20.6991 27.0682 21.6825 27.5173C21.768 27.5564 21.8211 27.6317 21.8211 27.714V27.7734C21.8211 27.8905 21.7204 27.9859 21.5966 27.9859H19.5903C19.3076 27.9859 19.0786 28.2027 19.0786 28.4702C19.0786 28.7378 19.3076 28.9545 19.5903 28.9545H21.5966C22.2848 28.9545 22.8447 28.4247 22.8447 27.7734V27.714C22.8447 27.2568 22.5699 26.8471 22.1273 26.6449C21.3881 26.3073 20.8207 25.6544 20.4409 24.7039C20.417 24.644 20.394 24.5823 20.3717 24.5201H32.7146C33.9404 24.5201 34.9376 23.5764 34.9376 22.4164V1.57415C34.9375 0.706131 34.1914 0 33.2743 0ZM7.33552 19.658H1.02356V1.57415C1.02356 1.24023 1.31057 0.96863 1.66335 0.96863H7.33552V19.658Z" fill="black"/>
<path d="M3.19706 0H0.935195C0.419525 0 0 0.397009 0 0.885069V14.0464C0 14.314 0.229073 14.5307 0.51178 14.5307H3.62047C3.90318 14.5307 4.13225 14.314 4.13225 14.0464V0.885069C4.13225 0.397009 3.71273 0 3.19706 0ZM3.10876 13.5621H1.02356V2.68472H3.10876V13.5621ZM3.10876 1.71609H1.02356V0.96863H3.10876V1.71609Z" transform="translate(28.3904 3.37613)" fill="black"/>
<path d="M0.841572 0H0.51178C0.229073 0 0 0.216779 0 0.484315C0 0.751851 0.229073 0.96863 0.51178 0.96863H0.841572C1.12428 0.96863 1.35335 0.751851 1.35335 0.484315C1.35335 0.216779 1.12428 0 0.841572 0Z" transform="translate(29.7798 6.72266)" fill="black"/>
<path d="M0.841572 0H0.51178C0.229073 0 0 0.216779 0 0.484315C0 0.751851 0.229073 0.96863 0.51178 0.96863H0.841572C1.12428 0.96863 1.35335 0.751851 1.35335 0.484315C1.35335 0.216779 1.12428 0 0.841572 0Z" transform="translate(29.7798 8.39383)" fill="black"/>
<path d="M0.841572 0H0.51178C0.229073 0 0 0.216779 0 0.484315C0 0.751851 0.229073 0.96863 0.51178 0.96863H0.841572C1.12428 0.96863 1.35335 0.751851 1.35335 0.484315C1.35335 0.216779 1.12428 0 0.841572 0Z" transform="translate(29.7798 10.065)" fill="black"/>
<path d="M0.841572 0H0.51178C0.229073 0 0 0.216779 0 0.484315C0 0.751851 0.229073 0.96863 0.51178 0.96863H0.841572C1.12428 0.96863 1.35335 0.751851 1.35335 0.484315C1.35335 0.216779 1.12428 0 0.841572 0Z" transform="translate(29.7798 11.7361)" fill="black"/>
<path d="M0.841572 0H0.51178C0.229073 0 0 0.216779 0 0.484315C0 0.751851 0.229073 0.96863 0.51178 0.96863H0.841572C1.12428 0.96863 1.35335 0.751851 1.35335 0.484315C1.35335 0.216779 1.12428 0 0.841572 0Z" transform="translate(29.7798 13.4072)" fill="black"/>
<path d="M0.841572 0H0.51178C0.229073 0 0 0.216779 0 0.484315C0 0.751851 0.229073 0.96863 0.51178 0.96863H0.841572C1.12428 0.96863 1.35335 0.751851 1.35335 0.484315C1.35335 0.216779 1.12428 0 0.841572 0Z" transform="translate(29.7798 15.0784)" fill="black"/>
<path d="M1.22725 0H0.51178C0.229073 0 0 0.216779 0 0.484315C0 0.751851 0.229073 0.96863 0.51178 0.96863H1.22725C1.50996 0.96863 1.73903 0.751851 1.73903 0.484315C1.73903 0.216779 1.50996 0 1.22725 0Z" transform="translate(2.28442 4.04694)" fill="black"/>
<path d="M3.27874 0H0.51178C0.229073 0 0 0.216779 0 0.484314C0 0.75185 0.229073 0.968629 0.51178 0.968629H3.27874C3.56145 0.968629 3.79052 0.75185 3.79052 0.484314C3.79052 0.216779 3.56145 0 3.27874 0Z" transform="translate(2.28442 5.75839)" fill="black"/>
<path d="M3.27867 0H0.51178C0.229073 0 0 0.216779 0 0.484315C0 0.751851 0.229073 0.96863 0.51178 0.96863H3.27874C3.56145 0.96863 3.79052 0.751851 3.79052 0.484315C3.79052 0.216779 3.56138 0 3.27867 0Z" transform="translate(2.28442 6.93939)" fill="black"/>
<path d="M3.27867 0H0.51178C0.229073 0 0 0.216779 0 0.484315C0 0.751851 0.229073 0.96863 0.51178 0.96863H3.27874C3.56145 0.96863 3.79052 0.751851 3.79052 0.484315C3.79052 0.216779 3.56138 0 3.27867 0Z" transform="translate(2.28442 8.12042)" fill="black"/>
<path d="M1.22725 0H0.51178C0.229073 0 0 0.216779 0 0.484315C0 0.751851 0.229073 0.96863 0.51178 0.96863H1.22725C1.50996 0.96863 1.73903 0.751851 1.73903 0.484315C1.73903 0.216779 1.50996 0 1.22725 0Z" transform="translate(2.28442 11.2458)" fill="black"/>
<path d="M3.27867 0H0.51178C0.229073 0 0 0.216779 0 0.484315C0 0.751851 0.229073 0.96863 0.51178 0.96863H3.27874C3.56145 0.96863 3.79052 0.751851 3.79052 0.484315C3.79052 0.216779 3.56138 0 3.27867 0Z" transform="translate(2.28442 12.9574)" fill="black"/>
<path d="M3.27867 0H0.51178C0.229073 0 0 0.21678 0 0.484316C0 0.751852 0.229073 0.968631 0.51178 0.968631H3.27874C3.56145 0.968631 3.79052 0.751852 3.79052 0.484316C3.79052 0.21678 3.56138 0 3.27867 0Z" transform="translate(2.28442 14.1383)" fill="black"/>
<path d="M3.27867 0H0.51178C0.229073 0 0 0.216779 0 0.484315C0 0.751851 0.229073 0.96863 0.51178 0.96863H3.27874C3.56145 0.96863 3.79052 0.751851 3.79052 0.484315C3.79052 0.216779 3.56138 0 3.27867 0Z" transform="translate(2.28442 15.3193)" fill="black"/>
<path d="M16.376 4.54748L13.818 3.0791C13.8167 3.07832 13.8154 3.07755 13.8141 3.07684L11.1231 1.53213C11.1229 1.532 11.1227 1.53187 11.1225 1.53174L8.57655 0.0702741C8.4134 -0.0234247 8.20882 -0.0234247 8.04573 0.0702741L5.50007 1.53161C5.49952 1.53187 5.49905 1.53219 5.4985 1.53252L2.80858 3.07664C2.80694 3.07755 2.80531 3.07858 2.80367 3.07948L0.246337 4.54748C0.093417 4.63523 0 4.79228 0 4.96153C0 5.13078 0.093417 5.28783 0.246337 5.37559L8.04573 9.85273C8.12728 9.89961 8.21919 9.92298 8.31118 9.92298C8.40316 9.92298 8.49501 9.89961 8.57662 9.85273L16.376 5.37559C16.5289 5.28783 16.6223 5.13078 16.6223 4.96153C16.6223 4.79228 16.5289 4.63523 16.376 4.54748ZM12.5704 3.4958L11.0039 4.39508L9.29789 3.41579L10.8645 2.51652L12.5704 3.4958ZM10.017 4.96147L8.31111 5.94075L6.60517 4.96147L8.31111 3.98218L10.017 4.96147ZM8.31118 1.05079L9.87777 1.95006L8.31118 2.84934L6.74458 1.95006L8.31118 1.05079ZM5.7578 2.51652L7.3244 3.41579L5.61846 4.39501L4.05194 3.49574L5.7578 2.51652ZM1.49856 4.96147L3.06516 4.06219L4.63175 4.96147L3.06516 5.86074L1.49856 4.96147ZM4.05187 6.42713L5.61846 5.52786L7.3244 6.50714L5.7578 7.40642L4.05187 6.42713ZM8.31118 8.87215L6.74458 7.97287L8.31118 7.0736L9.87777 7.97287L8.31118 8.87215ZM10.8645 7.40642L9.29789 6.50714L11.0038 5.52786L12.5704 6.42713L10.8645 7.40642ZM13.5571 5.86074L11.9905 4.96147L13.5571 4.06219L15.1237 4.96147L13.5571 5.86074Z" transform="translate(10.0881 5.44739)" fill="black"/>
<path d="M0.973339 0H0.51178C0.229073 0 0 0.216778 0 0.484314C0 0.75185 0.229073 0.968629 0.51178 0.968629H0.973339C1.25605 0.968629 1.48512 0.75185 1.48512 0.484314C1.48512 0.216778 1.25605 0 0.973339 0Z" transform="translate(21.563 14.2773)" fill="black"/>
<path d="M3.41187 0H0.51178C0.229073 0 0 0.216779 0 0.484315C0 0.751851 0.229073 0.96863 0.51178 0.96863H3.41187C3.69458 0.96863 3.92365 0.751851 3.92365 0.484315C3.92365 0.216779 3.69458 0 3.41187 0Z" transform="translate(21.563 15.5202)" fill="black"/>
</svg>
