<svg width="60" height="72" viewBox="0 0 60 72" fill="none" xmlns="http://www.w3.org/2000/svg">
<rect width="60" height="72" fill="black" fill-opacity="0"/>
<rect width="60" height="72" fill="black" fill-opacity="0"/>
<rect width="60" height="72" fill="black" fill-opacity="0"/>
<path d="M59.5649 17.8402L41.9671 0.430452C41.6884 0.154828 41.3107 0 40.9169 0H7.21826C3.238 0 0 3.20371 0 7.14149V64.8587C0 68.7963 3.23814 72 7.2184 72H52.7816C56.7619 72 60 68.7964 60 64.8587V18.8793C59.9999 18.4896 59.8434 18.1158 59.5649 17.8402ZM42.4025 5.01735L54.9291 17.41H46.6504C45.5156 17.41 44.4487 16.9728 43.6464 16.1792C42.844 15.3856 42.4024 14.3302 42.4025 13.2076V5.01735ZM57.0294 64.8585C57.0294 67.1759 55.1238 69.0611 52.7816 69.0611H7.21826C4.8759 69.0611 2.97034 67.1759 2.97034 64.8585V7.14149C2.97048 4.82413 4.87604 2.93878 7.21826 2.93878H39.432V13.2073C39.4318 15.1149 40.1826 16.9083 41.5458 18.257C42.9093 19.6059 44.722 20.3487 46.6503 20.3487H57.0292L57.0294 64.8585Z" fill="#D9D9D9"/>
<rect width="3.63543" height="2.93878" fill="black" fill-opacity="0" transform="translate(12.4685 42.7139)"/>
<rect width="3.63543" height="2.93878" fill="black" fill-opacity="0" transform="translate(12.4685 42.7139)"/>
<path d="M14.6187 42.7139H13.9537C13.1336 42.7139 12.4685 43.3717 12.4685 44.1833C12.4685 44.9948 13.1336 45.6526 13.9537 45.6526H14.6187C15.4388 45.6526 16.1039 44.9948 16.1039 44.1833C16.1039 43.3717 15.4388 42.7139 14.6187 42.7139Z" fill="#D9D9D9"/>
<rect width="29.5931" height="2.93878" fill="black" fill-opacity="0" transform="translate(17.9382 42.7139)"/>
<rect width="29.5931" height="2.93878" fill="black" fill-opacity="0" transform="translate(17.9382 42.7139)"/>
<path d="M46.0461 42.7139H19.4235C18.6033 42.7139 17.9382 43.3717 17.9382 44.1833C17.9382 44.9948 18.6033 45.6526 19.4235 45.6526H46.0461C46.8663 45.6526 47.5314 44.9948 47.5314 44.1833C47.5314 43.3717 46.8663 42.7139 46.0461 42.7139Z" fill="#D9D9D9"/>
<rect width="3.63543" height="2.93878" fill="black" fill-opacity="0" transform="translate(12.4685 36)"/>
<rect width="3.63543" height="2.93878" fill="black" fill-opacity="0" transform="translate(12.4685 36)"/>
<path d="M14.6187 36H13.9537C13.1336 36 12.4685 36.6578 12.4685 37.4694C12.4685 38.2809 13.1336 38.9388 13.9537 38.9388H14.6187C15.4388 38.9388 16.1039 38.2809 16.1039 37.4694C16.1039 36.6578 15.4388 36 14.6187 36Z" fill="#D9D9D9"/>
<rect width="29.5931" height="2.93878" fill="black" fill-opacity="0" transform="translate(17.9382 36)"/>
<rect width="29.5931" height="2.93878" fill="black" fill-opacity="0" transform="translate(17.9382 36)"/>
<path d="M46.0461 36H19.4235C18.6033 36 17.9382 36.6578 17.9382 37.4694C17.9382 38.2809 18.6033 38.9388 19.4235 38.9388H46.0461C46.8663 38.9388 47.5314 38.2809 47.5314 37.4694C47.5314 36.6578 46.8663 36 46.0461 36Z" fill="#D9D9D9"/>
<rect width="3.63543" height="2.93878" fill="black" fill-opacity="0" transform="translate(12.4685 29.2861)"/>
<rect width="3.63543" height="2.93878" fill="black" fill-opacity="0" transform="translate(12.4685 29.2861)"/>
<path d="M14.6187 29.2861H13.9537C13.1336 29.2861 12.4685 29.944 12.4685 30.7555C12.4685 31.5671 13.1336 32.2249 13.9537 32.2249H14.6187C15.4388 32.2249 16.1039 31.5671 16.1039 30.7555C16.1039 29.944 15.4388 29.2861 14.6187 29.2861Z" fill="#D9D9D9"/>
<rect width="29.5931" height="2.93878" fill="black" fill-opacity="0" transform="translate(17.9382 29.2861)"/>
<rect width="29.5931" height="2.93878" fill="black" fill-opacity="0" transform="translate(17.9382 29.2861)"/>
<path d="M46.0461 29.2861H19.4235C18.6033 29.2861 17.9382 29.944 17.9382 30.7555C17.9382 31.5671 18.6033 32.2249 19.4235 32.2249H46.0461C46.8663 32.2249 47.5314 31.5671 47.5314 30.7555C47.5314 29.944 46.8663 29.2861 46.0461 29.2861Z" fill="#D9D9D9"/>
</svg>
