<svg width="68" height="68" viewBox="0 0 68 68" fill="none" xmlns="http://www.w3.org/2000/svg">
<rect width="68" height="68" fill="black" fill-opacity="0"/>
<rect width="68" height="68" fill="black" fill-opacity="0"/>
<rect width="68" height="68" fill="black" fill-opacity="0"/>
<path d="M66.9352 54.3716C67.5233 54.3716 68 53.895 68 53.3068V15.8289C68 15.5465 67.8879 15.2758 67.6883 15.0759L56.3314 3.71902C56.1315 3.5194 55.8608 3.4073 55.5784 3.4073H31.6576V3.19414C31.6576 1.43291 30.2247 0 28.4634 0H3.19414C1.43291 0 0 1.43291 0 3.19414V37.549C0 39.3102 1.43291 40.7432 3.19414 40.7432H11.3569V66.9352C11.3569 67.5233 11.8335 68 12.4217 68H66.9352C67.5233 68 68 67.5235 68 66.9352V58.9854C68 58.3973 67.5235 57.9206 66.9352 57.9206C66.3471 57.9206 65.8705 58.3971 65.8705 58.9854V65.8705H13.4864V40.7432H28.4634C30.2247 40.7432 31.6576 39.3102 31.6576 37.549V19.2352C31.6576 18.6471 31.1811 18.1705 30.5928 18.1705C30.0046 18.1705 29.5281 18.647 29.5281 19.2352V37.5491C29.5281 38.1363 29.0505 38.6139 28.4633 38.6139H3.19414C2.60698 38.6139 2.12938 38.1363 2.12938 37.5491V3.19414C2.12938 2.60698 2.60698 2.12938 3.19414 2.12938H28.4634C29.0506 2.12938 29.5282 2.60698 29.5282 3.19414V13.5574C29.5282 14.1455 30.0047 14.6221 30.593 14.6221C31.1812 14.6221 31.6577 14.1456 31.6577 13.5574V5.53655H54.5173C54.5157 5.56006 54.5137 5.58357 54.5137 5.60748V15.8287C54.5137 16.4168 54.9902 16.8935 55.5784 16.8935H65.7997C65.8237 16.8935 65.8471 16.8915 65.8706 16.8899V53.307C65.8706 53.895 66.3471 54.3716 66.9352 54.3716ZM56.6431 14.7641V7.04225L64.3649 14.7641H56.6431Z" fill="#D9D9D9"/>
<rect width="9.22768" height="2.12952" fill="black" fill-opacity="0" transform="translate(18.1711 48.8352)"/>
<rect width="9.22768" height="2.12952" fill="black" fill-opacity="0" transform="translate(18.1711 48.8352)"/>
<path d="M26.3341 48.8352H19.2359C18.6478 48.8352 18.1711 49.3117 18.1711 49.9C18.1711 50.4881 18.6477 50.9647 19.2359 50.9647H26.3341C26.9222 50.9647 27.3988 50.4882 27.3988 49.9C27.3987 49.3119 26.9222 48.8352 26.3341 48.8352Z" fill="#D9D9D9"/>
<rect width="9.22768" height="2.12952" fill="black" fill-opacity="0" transform="translate(18.1711 54.5134)"/>
<rect width="9.22768" height="2.12952" fill="black" fill-opacity="0" transform="translate(18.1711 54.5134)"/>
<path d="M26.3341 54.5134H19.2359C18.6478 54.5134 18.1711 54.99 18.1711 55.5782C18.1711 56.1663 18.6477 56.6429 19.2359 56.6429H26.3341C26.9222 56.6429 27.3988 56.1664 27.3988 55.5782C27.3987 54.99 26.9222 54.5134 26.3341 54.5134Z" fill="#D9D9D9"/>
<rect width="31.6577" height="31.6577" fill="black" fill-opacity="0" transform="translate(31.7996 32.9353)"/>
<rect width="31.6577" height="31.6577" fill="black" fill-opacity="0" transform="translate(31.7996 32.9353)"/>
<path d="M47.6283 32.9353C43.2766 32.9353 39.2202 34.6649 36.2063 37.8057C35.7991 38.23 35.8129 38.9039 36.2372 39.3111C36.6617 39.7184 37.3356 39.7045 37.7427 39.2802C40.3512 36.5619 43.8621 35.0648 47.6283 35.0648C55.1821 35.0648 61.3276 41.2103 61.3276 48.7642C61.3276 56.318 55.1821 62.4635 47.6283 62.4635C40.0744 62.4635 33.9289 56.318 33.9289 48.7642C33.9289 46.5332 34.448 44.4062 35.4717 42.4422C35.7434 41.9206 35.541 41.2777 35.0197 41.0058C34.4983 40.7344 33.8552 40.9365 33.5834 41.4579C32.4165 43.697 31.7996 46.2235 31.7996 48.7642C31.7996 57.4922 38.9004 64.593 47.6284 64.593C56.3565 64.593 63.4573 57.4922 63.4573 48.7642C63.4573 40.0361 56.3562 32.9353 47.6283 32.9353Z" fill="#D9D9D9"/>
<rect width="11.2152" height="22.5721" fill="black" fill-opacity="0" transform="translate(42.0205 37.478)"/>
<rect width="11.2152" height="22.5721" fill="black" fill-opacity="0" transform="translate(42.0205 37.478)"/>
<path d="M50.0589 47.8415L48.4089 47.7929V41.879H52.171C52.7591 41.879 53.2357 41.4025 53.2357 40.8143C53.2357 40.2262 52.7592 39.7495 52.171 39.7495H48.4089V38.5428C48.4089 37.9547 47.9324 37.478 47.3442 37.478C46.7561 37.478 46.2794 37.9546 46.2794 38.5428V39.7495H45.2147C43.4534 39.7495 42.0205 41.1824 42.0205 42.9437V46.6347C42.0205 48.39 43.4441 49.8195 45.1974 49.8288L46.2794 49.8605V55.6492H43.0853C42.4972 55.6492 42.0205 56.1257 42.0205 56.7139C42.0205 57.302 42.497 57.7787 43.0853 57.7787H46.2794V58.9854C46.2794 59.5735 46.7559 60.0502 47.3442 60.0502C47.9323 60.0502 48.4089 59.5736 48.4089 58.9854V57.7787H50.0415C51.8027 57.7787 53.2356 56.3458 53.2356 54.5845V51.0355C53.2357 49.2803 51.8121 47.851 50.0589 47.8415ZM46.2795 47.7304L45.2463 47.6999C45.2359 47.6997 45.2254 47.6995 45.2149 47.6995C44.6278 47.6995 44.1502 47.222 44.1502 46.6348V42.9438C44.1502 42.3566 44.6278 41.879 45.2149 41.879H46.2797V47.7304H46.2795ZM51.1063 54.5848C51.1063 55.172 50.6288 55.6496 50.0416 55.6496H48.4091V49.9235L50.0102 49.9706C50.0206 49.9709 50.0311 49.971 50.0416 49.971C50.6288 49.971 51.1063 50.4486 51.1063 51.0358V54.5848Z" fill="#D9D9D9"/>
<rect width="24.8435" height="7.80805" fill="black" fill-opacity="0" transform="translate(3.40698 3.40674)"/>
<rect width="24.8435" height="7.80805" fill="black" fill-opacity="0" transform="translate(3.40698 3.40674)"/>
<path d="M27.1857 3.40674H4.47174C3.88365 3.40674 3.40698 3.88327 3.40698 4.4715V10.15C3.40698 10.7381 3.88351 11.2148 4.47174 11.2148H27.1857C27.7738 11.2148 28.2505 10.7383 28.2505 10.15V4.4715C28.2505 3.8834 27.774 3.40674 27.1857 3.40674ZM26.121 9.08527H5.5365V5.53625H26.1211V9.08527H26.121Z" fill="#D9D9D9"/>
<rect width="6.67237" height="6.67237" fill="black" fill-opacity="0" transform="translate(3.40698 12.4927)"/>
<rect width="6.67237" height="6.67237" fill="black" fill-opacity="0" transform="translate(3.40698 12.4927)"/>
<path d="M9.01459 12.4927H4.47174C3.88365 12.4927 3.40698 12.9692 3.40698 13.5574V18.1003C3.40698 18.6884 3.88351 19.165 4.47174 19.165H9.01459C9.60269 19.165 10.0793 18.6885 10.0793 18.1003V13.5574C10.0792 12.9692 9.60269 12.4927 9.01459 12.4927ZM7.94983 17.0354H5.5365V14.6221H7.94983V17.0354Z" fill="#D9D9D9"/>
<rect width="6.67237" height="6.67237" fill="black" fill-opacity="0" transform="translate(12.4927 12.4927)"/>
<rect width="6.67237" height="6.67237" fill="black" fill-opacity="0" transform="translate(12.4927 12.4927)"/>
<path d="M18.1003 12.4927H13.5574C12.9693 12.4927 12.4927 12.9692 12.4927 13.5574V18.1003C12.4927 18.6884 12.9692 19.165 13.5574 19.165H18.1003C18.6884 19.165 19.165 18.6885 19.165 18.1003V13.5574C19.165 12.9692 18.6884 12.4927 18.1003 12.4927ZM17.0355 17.0354H14.6222V14.6221H17.0355V17.0354Z" fill="#D9D9D9"/>
<rect width="6.67237" height="6.67237" fill="black" fill-opacity="0" transform="translate(21.5781 12.4927)"/>
<rect width="6.67237" height="6.67237" fill="black" fill-opacity="0" transform="translate(21.5781 12.4927)"/>
<path d="M27.1857 12.4927H22.6429C22.0548 12.4927 21.5781 12.9692 21.5781 13.5574V18.1003C21.5781 18.6884 22.0547 19.165 22.6429 19.165H27.1857C27.7738 19.165 28.2505 18.6885 28.2505 18.1003V13.5574C28.2505 12.9692 27.774 12.4927 27.1857 12.4927ZM26.121 17.0354H23.7076V14.6221H26.121V17.0354Z" fill="#D9D9D9"/>
<rect width="6.67237" height="6.67237" fill="black" fill-opacity="0" transform="translate(3.40698 21.5786)"/>
<rect width="6.67237" height="6.67237" fill="black" fill-opacity="0" transform="translate(3.40698 21.5786)"/>
<path d="M9.01459 21.5786H4.47174C3.88365 21.5786 3.40698 22.0551 3.40698 22.6434V27.1862C3.40698 27.7743 3.88351 28.251 4.47174 28.251H9.01459C9.60269 28.251 10.0793 27.7744 10.0793 27.1862V22.6434C10.0792 22.0551 9.60269 21.5786 9.01459 21.5786ZM7.94983 26.1213H5.5365V23.708H7.94983V26.1213Z" fill="#D9D9D9"/>
<rect width="6.67237" height="6.67237" fill="black" fill-opacity="0" transform="translate(12.4927 21.5786)"/>
<rect width="6.67237" height="6.67237" fill="black" fill-opacity="0" transform="translate(12.4927 21.5786)"/>
<path d="M18.1003 21.5786H13.5574C12.9693 21.5786 12.4927 22.0551 12.4927 22.6434V27.1862C12.4927 27.7743 12.9692 28.251 13.5574 28.251H18.1003C18.6884 28.251 19.165 27.7744 19.165 27.1862V22.6434C19.165 22.0551 18.6884 21.5786 18.1003 21.5786ZM17.0355 26.1213H14.6222V23.708H17.0355V26.1213Z" fill="#D9D9D9"/>
<rect width="6.67237" height="6.67237" fill="black" fill-opacity="0" transform="translate(3.40698 30.6641)"/>
<rect width="6.67237" height="6.67237" fill="black" fill-opacity="0" transform="translate(3.40698 30.6641)"/>
<path d="M9.01459 30.6641H4.47174C3.88365 30.6641 3.40698 31.1406 3.40698 31.7288V36.2717C3.40698 36.8598 3.88351 37.3364 4.47174 37.3364H9.01459C9.60269 37.3364 10.0793 36.8599 10.0793 36.2717V31.7288C10.0792 31.1406 9.60269 30.6641 9.01459 30.6641ZM7.94983 35.2069H5.5365V32.7936H7.94983V35.2069Z" fill="#D9D9D9"/>
<rect width="6.67237" height="6.67237" fill="black" fill-opacity="0" transform="translate(12.4927 30.6641)"/>
<rect width="6.67237" height="6.67237" fill="black" fill-opacity="0" transform="translate(12.4927 30.6641)"/>
<path d="M18.1003 30.6641H13.5574C12.9693 30.6641 12.4927 31.1406 12.4927 31.7288V36.2717C12.4927 36.8598 12.9692 37.3364 13.5574 37.3364H18.1003C18.6884 37.3364 19.165 36.8599 19.165 36.2717V31.7288C19.165 31.1406 18.6884 30.6641 18.1003 30.6641ZM17.0355 35.2069H14.6222V32.7936H17.0355V35.2069Z" fill="#D9D9D9"/>
<rect width="6.67237" height="15.7579" fill="black" fill-opacity="0" transform="translate(21.5781 21.5786)"/>
<rect width="6.67237" height="15.7579" fill="black" fill-opacity="0" transform="translate(21.5781 21.5786)"/>
<path d="M27.1857 21.5786H22.6429C22.0548 21.5786 21.5781 22.0551 21.5781 22.6434V36.2718C21.5781 36.8599 22.0547 37.3366 22.6429 37.3366H27.1857C27.7738 37.3366 28.2505 36.86 28.2505 36.2718V22.6434C28.2505 22.0551 27.774 21.5786 27.1857 21.5786ZM26.121 35.207H23.7076V23.7081H26.121V35.207Z" fill="#D9D9D9"/>
<rect width="27.0196" height="26.1409" fill="black" fill-opacity="0" transform="translate(36.4329 7.94946)"/>
<rect width="27.0196" height="26.1409" fill="black" fill-opacity="0" transform="translate(36.4329 7.94946)"/>
<path d="M63.1254 25.1067L57.3257 19.5993C56.8996 19.1942 56.2257 19.2119 55.8206 19.6382C55.4155 20.0646 55.4332 20.7385 55.8595 21.1434L60.8667 25.8984L59.9829 26.7821L44.6751 11.4736C44.5263 11.325 44.3371 11.2236 44.131 11.1825L40.1856 10.3934L38.2863 8.29911C37.8912 7.86335 37.2175 7.83041 36.7823 8.22553C36.3468 8.62052 36.3139 9.29374 36.7087 9.7295C36.7087 9.7295 38.898 12.125 38.9708 12.173L39.6657 15.6475C39.7068 15.8536 39.8082 16.0429 39.9568 16.1916L56.9216 33.1566C57.5444 33.7792 58.3622 34.0904 59.1802 34.0904C59.9982 34.0904 60.8161 33.7792 61.4387 33.1566C61.4387 33.1566 61.4387 33.1566 61.4388 33.1566L61.6395 32.9557C62.8846 31.7104 62.8846 29.6839 61.6395 28.4387L61.4889 28.2881L63.1452 26.6317C63.5626 26.2142 63.5536 25.5131 63.1254 25.1067ZM41.6905 14.9141L41.2641 12.7809L43.3972 13.2075L53.6591 23.4696L51.9527 25.176L41.6905 14.9141ZM60.1339 31.4499L59.9334 31.6506C59.518 32.0655 58.8426 32.0659 58.4276 31.6506L53.4588 26.6817L55.165 24.9753L60.1339 29.9442C60.5491 30.3593 60.549 31.0347 60.1339 31.4499Z" fill="#D9D9D9"/>
</svg>
