<svg width="70" height="70" viewBox="0 0 70 70" fill="none" xmlns="http://www.w3.org/2000/svg">
<rect width="70" height="70" fill="black" fill-opacity="0"/>
<rect width="70" height="70" fill="black" fill-opacity="0"/>
<rect width="70" height="70" fill="black" fill-opacity="0"/>
<rect width="70" height="70" fill="black" fill-opacity="0"/>
<path d="M35 0C15.7019 0 0 15.7019 0 35C0 54.2981 15.7019 70 35 70C54.2981 70 70 54.2981 70 35C70 15.7019 54.2981 0 35 0ZM35 67.0834C20.3422 67.0834 7.95813 57.2003 4.14025 43.75H24.8953C27.3249 47.4191 31.048 49.5834 35 49.5834C38.9521 49.5834 42.6753 47.4193 45.1047 43.75H65.8597C62.0419 57.2003 49.6578 67.0834 35 67.0834ZM44.2954 40.8334C43.7778 40.8331 43.2987 41.1074 43.0369 41.5537C41.1615 44.7547 38.1572 46.6666 35 46.6666C31.8428 46.6666 28.8385 44.7547 26.9631 41.5537C26.7012 41.1072 26.2222 40.8331 25.7046 40.8334H3.45775C3.09996 38.9095 2.91895 36.9569 2.91676 35C2.91662 17.309 17.309 2.91662 35 2.91662C52.691 2.91662 67.0834 17.309 67.0834 35C67.0812 36.9569 66.9 38.9095 66.5424 40.8334H44.2954Z" fill="#D9D9D9"/>
<path d="M45.6355 20.8438L36.9526 29.5266C36.3274 29.2945 35.6668 29.1727 34.9999 29.1664C31.7782 29.1664 29.1665 31.778 29.1665 34.9998C29.1665 38.2215 31.7781 40.8331 34.9999 40.8331C38.2046 40.8494 40.8158 38.2647 40.832 35.0601C40.8393 33.6438 40.3282 32.2737 39.3953 31.2081L47.6975 22.9059C48.2571 22.3266 48.2411 21.4034 47.6617 20.8438C47.0966 20.2978 46.2007 20.2978 45.6355 20.8438ZM34.9999 37.9164C33.3891 37.9164 32.0833 36.6106 32.0833 34.9998C32.0833 33.3889 33.3891 32.0831 34.9999 32.0831C36.6107 32.0831 37.9165 33.3889 37.9165 34.9998C37.9165 36.6106 36.6107 37.9164 34.9999 37.9164Z" fill="#D9D9D9"/>
<path d="M34.9999 13.125C35.8053 13.125 36.4583 12.472 36.4583 11.6666V5.83338C36.4583 5.02797 35.8053 4.375 34.9999 4.375C34.1945 4.375 33.5415 5.02797 33.5415 5.83338V11.6668C33.5415 12.472 34.1945 13.125 34.9999 13.125Z" fill="#D9D9D9"/>
<path d="M64.1665 33.5415H58.3331C57.5277 33.5415 56.8748 34.1945 56.8748 34.9999C56.8748 35.8053 57.5277 36.4583 58.3331 36.4583H64.1665C64.9719 36.4583 65.6249 35.8053 65.6249 34.9999C65.6249 34.1945 64.9719 33.5415 64.1665 33.5415Z" fill="#D9D9D9"/>
<path d="M11.6666 33.5415H5.83338C5.02797 33.5415 4.375 34.1945 4.375 34.9999C4.375 35.8053 5.02797 36.4583 5.83338 36.4583H11.6668C12.472 36.4583 13.125 35.8053 13.125 34.9999C13.125 34.1945 12.472 33.5415 11.6666 33.5415Z" fill="#D9D9D9"/>
<path d="M24.4606 13.8292L21.9815 9.52575C21.5742 8.83095 20.6808 8.59784 19.986 9.00513C19.2976 9.40858 19.0613 10.2904 19.4558 10.9841L21.9349 15.2876C22.333 15.9878 23.2233 16.2326 23.9235 15.8345C24.6236 15.4364 24.8685 14.5461 24.4703 13.8459C24.4671 13.8403 24.4639 13.8347 24.4606 13.8292Z" fill="#D9D9D9"/>
<path d="M61.0225 19.9929C60.6244 19.2927 59.734 19.0479 59.0339 19.446C59.0283 19.4491 59.0228 19.4524 59.0172 19.4556L54.7137 21.9347C54.0162 22.3375 53.7773 23.2294 54.18 23.9268C54.4404 24.378 54.9218 24.6559 55.4429 24.6559C55.6988 24.6559 55.9504 24.5885 56.172 24.4606L60.4755 21.9814C61.1757 21.5833 61.4206 20.693 61.0225 19.9929Z" fill="#D9D9D9"/>
<path d="M15.3045 21.9402C15.2989 21.937 15.2933 21.9337 15.2876 21.9305L10.9841 19.4514C10.2893 19.0441 9.39581 19.2772 8.98853 19.972C8.58124 20.6668 8.81435 21.5603 9.50915 21.9676C9.51462 21.9709 9.52023 21.974 9.52583 21.9772L13.8293 24.4563C14.5241 24.8637 15.4176 24.6306 15.825 23.9358C16.2323 23.241 15.9993 22.3475 15.3045 21.9402Z" fill="#D9D9D9"/>
<path d="M49.9975 8.99727C49.3039 8.60283 48.4221 8.83908 48.0185 9.52746L45.5394 13.831C45.1367 14.5285 45.3756 15.4203 46.0731 15.8231C46.7706 16.2257 47.6625 15.9869 48.0652 15.2893L50.5444 10.9858C50.9425 10.2857 50.6976 9.39539 49.9975 8.99727Z" fill="#D9D9D9"/>
</svg>
