<svg width="25" height="25" viewBox="0 0 25 25" fill="none" xmlns="http://www.w3.org/2000/svg">
<path d="M1.26968 0C0.569596 0 0 0.575666 0 1.28332C0 1.99093 0.569548 2.5666 1.26968 2.5666C1.96977 2.5666 2.53932 1.99093 2.53932 1.28332C2.53932 0.575714 1.96977 0 1.26968 0ZM1.26964 1.80606C0.984478 1.80606 0.752459 1.57154 0.752459 1.28332C0.752459 0.995103 0.984478 0.760591 1.26964 0.760591C1.55479 0.760591 1.78681 0.995103 1.78681 1.28332C1.78681 1.57154 1.55479 1.80606 1.26964 1.80606Z" transform="translate(20.0054 5.04279) scale(1 -1)" fill="black"/>
<path d="M24.3928 21.174C24.3688 20.2344 23.9754 19.3703 23.2849 18.7407L15.7098 11.835L22.4075 5.06538C22.4516 5.0521 22.4951 5.03557 22.537 5.01317L23.9874 4.23945C24.1878 4.13251 24.3221 3.94124 24.356 3.71482C24.3898 3.48836 24.3174 3.26557 24.1571 3.10348L22.5241 1.45293C22.3638 1.29098 22.1435 1.21773 21.9193 1.25196C21.6953 1.28613 21.5061 1.42195 21.4002 1.62452L20.6347 3.09039C20.6123 3.13319 20.5952 3.17745 20.582 3.22238L17.4206 6.41773C17.2736 6.5663 17.2736 6.80701 17.4206 6.95558C17.5676 7.10401 17.8057 7.10401 17.9527 6.95558L20.8538 4.0233L21.6141 4.79175L14.195 12.2905L13.4347 11.5221L16.6731 8.24899C16.82 8.10042 16.82 7.8597 16.6731 7.71113C16.5261 7.56271 16.2879 7.56271 16.1409 7.71113L13.7913 10.086L11.2341 7.75476C11.9591 5.64541 11.4341 3.29858 9.86128 1.70896C8.25032 0.0807026 5.83363 -0.438201 3.7044 0.387149C3.58542 0.433295 3.49761 0.537125 3.47113 0.663106C3.44466 0.789087 3.48298 0.920061 3.57309 1.01114L6.52691 3.99674C6.61429 4.08506 6.66249 4.20251 6.66249 4.32742C6.66249 4.45234 6.61434 4.56979 6.52691 4.65815L4.60865 6.59703C4.52127 6.68539 4.40507 6.73406 4.28148 6.73406C4.15789 6.73406 4.04169 6.68544 3.95426 6.59703L1.00039 3.61143C0.910233 3.52035 0.780747 3.48162 0.656057 3.50837C0.531414 3.53518 0.428689 3.62389 0.383033 3.74415C-0.433545 5.89616 0.0798434 8.33881 1.69084 9.96716C3.22506 11.5178 5.50196 12.0638 7.55604 11.3929L9.5332 13.5783C9.43819 13.7659 9.31465 13.9409 9.16229 14.0949C8.59236 14.6709 7.73818 14.8524 6.98596 14.5573C6.84693 14.5026 6.6892 14.5363 6.58369 14.6429L1.97691 19.2991C0.729816 20.5597 0.729816 22.6107 1.97691 23.8711C2.58113 24.4819 3.38438 24.8182 4.23875 24.8182C5.09307 24.8182 5.89636 24.4819 6.50049 23.8713L11.1073 19.2151C11.2127 19.1085 11.2459 18.949 11.1919 18.8085C10.8999 18.0482 11.0795 17.1848 11.6493 16.6087C12.2194 16.0327 13.0736 15.8512 13.8258 16.1463C13.9649 16.201 14.1225 16.1673 14.228 16.0608L15.097 15.1824C15.3587 14.918 15.5027 14.5663 15.5027 14.1923C15.5027 13.8183 15.3587 13.4667 15.097 13.2022L14.7271 12.8283L15.1771 12.3735L22.7809 19.3055C23.3167 19.794 23.6221 20.4645 23.6406 21.1936C23.6592 21.9226 23.3884 22.6082 22.8782 23.1238C22.3704 23.6371 21.6939 23.9103 20.9773 23.8947C20.2594 23.8785 19.5971 23.5746 19.1124 23.0389L13.4587 16.79C13.3184 16.6349 13.0805 16.6243 12.9272 16.766C12.7739 16.9078 12.7632 17.1483 12.9034 17.3033L18.5571 23.5522C19.1817 24.2425 20.0352 24.6341 20.9605 24.655C20.9864 24.6556 21.0122 24.6559 21.0381 24.6559C21.9343 24.6559 22.7741 24.3045 23.4103 23.6616C24.0678 22.997 24.4167 22.1135 24.3928 21.174ZM21.3161 3.41492L22.0364 2.03567L23.5806 3.59645L22.216 4.32447L21.3161 3.41492ZM7.94426 10.695C7.84067 10.5806 7.67886 10.5412 7.53508 10.5954C5.69527 11.289 3.60997 10.8313 2.22289 9.4295C0.963419 8.15645 0.4754 6.31089 0.905438 4.59117L3.42212 7.13488C3.6517 7.36688 3.95685 7.4946 4.28143 7.4946C4.60601 7.4946 4.91116 7.36688 5.14069 7.13488L7.05896 5.19601C7.28848 4.96397 7.41485 4.65554 7.41485 4.32747C7.41485 3.99941 7.28848 3.69097 7.05896 3.45898L4.54232 0.915166C6.24362 0.480314 8.06976 0.973721 9.32918 2.24677C10.7516 3.68433 11.1887 5.83392 10.4429 7.72315C10.3845 7.87095 10.4233 8.03988 10.5403 8.14647L13.2585 10.6245L12.9026 10.9843L12.5327 10.6104C12.271 10.3459 11.9231 10.2003 11.5531 10.2003C11.1831 10.2003 10.8352 10.3459 10.5735 10.6104L9.7045 11.4887C9.59909 11.5953 9.56586 11.7548 9.61986 11.8953C9.71994 12.1559 9.76335 12.4284 9.75591 12.6975L7.94426 10.695ZM14.5648 14.6446L13.8607 15.3563C12.8924 15.0742 11.8386 15.3419 11.1173 16.0709H11.1172C10.396 16.8 10.1311 17.8649 10.4103 18.8438L5.96839 23.3334C5.50637 23.8004 4.89213 24.0576 4.2388 24.0576C3.58547 24.0576 2.97113 23.8004 2.5092 23.3334C1.55546 22.3695 1.55546 20.801 2.5092 19.837L6.9511 15.3474C7.91956 15.6297 8.97315 15.3618 9.69453 14.6328C10.4158 13.9037 10.6807 12.8388 10.4015 11.8599L11.1056 11.1482C11.3523 10.8988 11.7539 10.8988 12.0006 11.1482L12.6365 11.791L13.9289 13.0972L14.5648 13.74C14.8116 13.9895 14.8116 14.3953 14.5648 14.6446Z" transform="translate(0.302979 25) scale(1 -1)" fill="black"/>
<path d="M4.20648 0.111355C4.05949 -0.0371182 3.82133 -0.0371182 3.67434 0.111355L0.110207 3.71377C-0.0367357 3.86234 -0.0367357 4.10306 0.110207 4.25163C0.183679 4.32584 0.280026 4.36297 0.376277 4.36297C0.472528 4.36297 0.568876 4.32584 0.642347 4.25163L4.20648 0.649212C4.35337 0.500642 4.35337 0.259876 4.20648 0.111355Z" transform="translate(3.80103 8.32761) scale(1 -1)" fill="black"/>
<path d="M4.20648 0.111355C4.05954 -0.0371182 3.82133 -0.0371182 3.67434 0.111355L0.110207 3.71372C-0.0367357 3.86229 -0.0367357 4.10301 0.110207 4.25158C0.183679 4.32579 0.279978 4.36292 0.376277 4.36292C0.472528 4.36292 0.568876 4.32579 0.642347 4.25158L4.20648 0.64921C4.35342 0.50064 4.35342 0.259924 4.20648 0.111355Z" transform="translate(5.11792 6.99661) scale(1 -1)" fill="black"/>
</svg>
