<svg width="35" height="26" viewBox="0 0 35 26" fill="none" xmlns="http://www.w3.org/2000/svg">
<path d="M3.50001 0C1.56974 0 0 1.55314 0 3.463C0 5.37285 1.56974 6.92599 3.50001 6.92599C5.43027 6.92599 7.00001 5.37285 7.00001 3.463C7.00001 1.55314 5.43021 0 3.50001 0ZM3.50001 5.77164C2.21314 5.77164 1.16669 4.73619 1.16669 3.463C1.16669 2.18974 2.21321 1.15436 3.50001 1.15436C4.78681 1.15436 5.83332 2.1898 5.83332 3.463C5.83332 4.73619 4.78681 5.77164 3.50001 5.77164Z" transform="translate(4.6665 18.4377)" fill="black"/>
<path d="M3.50001 0C1.56974 0 0 1.55314 0 3.463C0 5.37285 1.56974 6.92599 3.50001 6.92599C5.43027 6.92599 7.00001 5.37285 7.00001 3.463C7.00001 1.55314 5.43027 0 3.50001 0ZM3.50001 5.77164C2.21314 5.77164 1.16669 4.73619 1.16669 3.463C1.16669 2.18974 2.21321 1.15436 3.50001 1.15436C4.78688 1.15436 5.83332 2.1898 5.83332 3.463C5.83332 4.73619 4.78688 5.77164 3.50001 5.77164Z" transform="translate(24.5 18.4377)" fill="black"/>
<path d="M12.7406 8.34528L7.49056 0.264933C7.38324 0.0998322 7.19832 0 6.99994 0H0.583311C0.260722 0 0 0.258575 0 0.577144V15.0063C0 15.3254 0.260722 15.5834 0.583311 15.5834H2.91663V14.4291H1.16662V1.15435H6.68146L11.6666 8.82719V14.4292H8.74995V15.5835H12.25C12.5725 15.5835 12.8333 15.3255 12.8333 15.0063V8.65749C12.8333 8.54724 12.8013 8.43814 12.7406 8.34528Z" transform="translate(22.1667 6.89432)" fill="black"/>
<path d="M1.16662 5.19449V1.15435H5.83332V0H0.583311C0.260722 0 0 0.258574 0 0.577143V5.77164C0 6.09081 0.260722 6.34878 0.583311 6.34878H9.33333V5.19443H1.16662V5.19449Z" transform="translate(24.5 9.20294)" fill="black"/>
<path d="M22.75 0H0.583312C0.261338 0 0 0.258575 0 0.577143V19.0465C0 19.3657 0.261338 19.6236 0.583312 19.6236H5.25001V18.4693H1.16669V1.15429H22.1667V18.4693H11.0833V19.6236H22.75C23.0726 19.6236 23.3334 19.3657 23.3334 19.0465V0.577143C23.3334 0.258575 23.0726 0 22.75 0Z" transform="translate(0 2.85416)" fill="black"/>
<path d="M3.50001 0H0V1.15435H3.50001V0Z" transform="translate(0.583496 19.0148)" fill="black"/>
<path d="M9.91671 0H0V1.15435H9.91671V0Z" transform="translate(12.25 19.0148)" fill="black"/>
<path d="M2.33331 0H0V1.15435H2.33331V0Z" transform="translate(32.0835 19.0148)" fill="black"/>
<path d="M20.4167 0H0V1.15435H20.4167V0Z" transform="translate(2.3335 5.16278)" fill="black"/>
<path d="M1.16669 0H0V1.15435H1.16669V0Z" transform="translate(7.58325 21.3234)" fill="black"/>
<path d="M1.16669 0H0V1.15435H1.16669V0Z" transform="translate(27.4165 21.3234)" fill="black"/>
<path d="M8.16671 0H0V1.15435H8.16671V0Z" transform="translate(2.3335 0.545441)" fill="black"/>
<path d="M1.16669 0H0V1.15435H1.16669V0Z" transform="translate(0 0.545471)" fill="black"/>
</svg>
